<?xml version="1.0" encoding="UTF-8"?>
<!-- Generator: Adobe Illustrator 26.3.1, SVG Export Plug-In . SVG Version: 6.00 Build 0)  -->
<svg xmlns="http://www.w3.org/2000/svg" xmlns:xlink="http://www.w3.org/1999/xlink" version="1.1" id="Layer_1" x="0px" y="0px" viewBox="0 0 305.6 44.4" style="enable-background:new 0 0 305.6 44.4;" xml:space="preserve">
<style type="text/css">
	.st0{fill:#FFFFFF;}
</style>
<g>
	<path class="st0" d="M33.1,8.1l-9.3,21.1h-1.6l-5.2-11.9l-5.2,11.9h-1.6L1,8.1h4.9L13,24.6l3.6-8.3l-3.6-8.2h4.9l7.1,16.5l7.2-16.5   H33.1z"></path>
	<path class="st0" d="M43.9,23.5h-9.4l-2.5,5.7h-0.8l9.3-21.1h1.6l9.2,21.1h-4.9L43.9,23.5z M43.7,22.9l-4.4-10.2l-4.5,10.2H43.7z"></path>
	<path class="st0" d="M60.6,23.5h0.7c0,2.9,2.9,5.1,6.6,5.1c3,0,5.2-1.4,5.2-3.4c0-2.2-2.5-3.3-5.3-4.5C64.6,19.4,61,17.9,61,14   c0-3.8,3.3-6.2,7.8-6.2c4.1,0,7.2,2.4,7.2,5.6h-0.7c0-2.8-2.5-4.8-5.7-4.8c-2.9,0-5.1,1.5-5.1,3.6c0,2.4,2.7,3.5,5.5,4.6   c3.3,1.3,6.8,2.7,6.8,6.4c0,3.7-3.3,6.2-8.1,6.2C64.2,29.5,60.6,26.9,60.6,23.5z"></path>
	<path class="st0" d="M89.1,26.8c0,1.5-1.9,2.7-4.3,2.7c-2.8,0-4.8-1.7-4.8-4.1V14.7h-1.8v-0.6H80v-3.3l4.6-1v4.3h3.9v0.6h-3.9v11.5   c0,1.3,0.8,2.2,1.9,2.2s2-0.7,2-1.6H89.1z"></path>
	<path class="st0" d="M105.1,19.4v9.8h-4.6v-2.1c-1.1,1.4-3.2,2.4-5.3,2.4c-2.9,0-5.2-1.8-5.2-4.2c0-2.5,2.7-4.4,6.3-4.4   c1.6,0,3.4,0.4,4.2,1v-3.6c0-2.2-1.6-3.6-4.2-3.6c-2.4,0-4.5,1.4-4.5,3.2h-0.6c0-2.3,2.8-4.1,6.5-4.1   C102,13.8,105.1,16.2,105.1,19.4z M100.5,26.2v-3.7C99.9,22,99,21.8,98,21.8c-2,0-3.3,1.2-3.3,3.1c0,1.8,1.1,3,2.7,3   C98.6,27.9,99.8,27.3,100.5,26.2z"></path>
	<path class="st0" d="M118,26.8c0,1.5-1.9,2.7-4.3,2.7c-2.8,0-4.8-1.7-4.8-4.1V14.7h-1.8v-0.6h1.8v-3.3l4.6-1v4.3h3.9v0.6h-3.9v11.5   c0,1.3,0.8,2.2,1.9,2.2s2-0.7,2-1.6H118z"></path>
	<path class="st0" d="M132.5,26.2h0.7c-0.9,1.9-3.5,3.2-6.4,3.2c-5.1,0-8.6-3.4-8.6-7.9c0-4.4,3.5-7.8,8-7.8c4.4,0,7.5,3.2,7.5,7.5   h-10.8c0.1,4.9,1.9,7.3,5.2,7.3C129.9,28.6,131.6,27.7,132.5,26.2z M122.9,20.7h6.4c-0.1-3.9-1.2-6.3-3.1-6.3   C124.2,14.4,122.9,17,122.9,20.7z"></path>
	<path class="st0" d="M143.4,23.5h0.7c0,2.9,2.9,5.1,6.6,5.1c3,0,5.2-1.4,5.2-3.4c0-2.2-2.5-3.3-5.3-4.5c-3.1-1.3-6.8-2.8-6.8-6.7   c0-3.8,3.3-6.2,7.8-6.2c4.1,0,7.2,2.4,7.2,5.6h-0.7c0-2.8-2.5-4.8-5.7-4.8c-2.9,0-5.1,1.5-5.1,3.6c0,2.4,2.7,3.5,5.5,4.6   c3.3,1.3,6.8,2.7,6.8,6.4c0,3.7-3.3,6.2-8.1,6.2C147,29.5,143.4,26.9,143.4,23.5z"></path>
	<path class="st0" d="M171.9,26.8c0,1.5-1.9,2.7-4.3,2.7c-2.8,0-4.8-1.7-4.8-4.1V14.7H161v-0.6h1.8v-3.3l4.6-1v4.3h3.9v0.6h-3.9   v11.5c0,1.3,0.8,2.2,1.9,2.2s2-0.7,2-1.6H171.9z"></path>
	<path class="st0" d="M187.9,19.4v9.8h-4.6v-2.1c-1.1,1.4-3.2,2.4-5.3,2.4c-2.9,0-5.2-1.8-5.2-4.2c0-2.5,2.7-4.4,6.3-4.4   c1.6,0,3.4,0.4,4.2,1v-3.6c0-2.2-1.6-3.6-4.2-3.6c-2.4,0-4.5,1.4-4.5,3.2H174c0-2.3,2.8-4.1,6.5-4.1   C184.8,13.8,187.9,16.2,187.9,19.4z M183.3,26.2v-3.7c-0.5-0.5-1.5-0.7-2.5-0.7c-2,0-3.3,1.2-3.3,3.1c0,1.8,1.1,3,2.7,3   C181.4,27.9,182.6,27.3,183.3,26.2z"></path>
	<path class="st0" d="M206.5,18.8v10.4h-4.6V17.7c0-1.4-1-2.5-2.4-2.5c-1.4,0-2.8,1.1-3.5,2.6v11.3h-4.6V14.7l4.6-0.8v2.7   c1.1-1.7,3-2.8,5.3-2.8C204.4,13.8,206.5,15.9,206.5,18.8z"></path>
	<path class="st0" d="M225.3,7.2v22h-4.6v-2.1c-1.1,1.4-2.9,2.4-4.9,2.4c-3.8,0-6.7-3.4-6.7-7.8s2.9-7.8,6.6-7.8c2,0,3.9,1,4.9,2.6   V8L225.3,7.2z M220.7,25.8v-8.1c-0.7-1.5-2-2.5-3.3-2.5c-2.1,0-3.6,2.6-3.6,6.5c0,3.9,1.4,6.5,3.6,6.5   C218.8,28.1,220,27.2,220.7,25.8z"></path>
	<path class="st0" d="M243.2,19.4v9.8h-4.6v-2.1c-1.1,1.4-3.2,2.4-5.3,2.4c-2.9,0-5.2-1.8-5.2-4.2c0-2.5,2.7-4.4,6.3-4.4   c1.6,0,3.4,0.4,4.2,1v-3.6c0-2.2-1.6-3.6-4.2-3.6c-2.4,0-4.5,1.4-4.5,3.2h-0.6c0-2.3,2.8-4.1,6.5-4.1   C240.1,13.8,243.2,16.2,243.2,19.4z M238.6,26.2v-3.7c-0.5-0.5-1.5-0.7-2.5-0.7c-2,0-3.3,1.2-3.3,3.1c0,1.8,1.1,3,2.7,3   C236.7,27.9,237.9,27.3,238.6,26.2z"></path>
	<path class="st0" d="M259,17.2h-0.6c0-1.6-1.1-2.7-2.8-2.7c-1.9,0-3.5,1.4-4.2,3.6v11.2h-4.6V14.7l4.6-0.8v2.7   c0.8-1.8,2.3-2.9,4.2-2.9C257.6,13.8,259,15.2,259,17.2z"></path>
	<path class="st0" d="M276.1,7.2v22h-4.6v-2.1c-1.1,1.4-2.9,2.4-4.9,2.4c-3.8,0-6.7-3.4-6.7-7.8s2.9-7.8,6.6-7.8c2,0,3.9,1,4.9,2.6   V8L276.1,7.2z M271.5,25.8v-8.1c-0.7-1.5-2-2.5-3.3-2.5c-2.1,0-3.6,2.6-3.6,6.5c0,3.9,1.4,6.5,3.6,6.5   C269.6,28.1,270.8,27.2,271.5,25.8z"></path>
</g>
<path class="st0" d="M290.9,22.3c-0.2,0.5-0.5,0.4-0.8,0.4c-0.3,0-0.4-0.2-0.5-0.5c0-0.4,0.3-0.4,0.5-0.4c0.6,0,1.1,0,1.7,0.3  c0.1,0.1,0.2,0.2,0.4,0.1c-0.2-0.2-0.4-0.3-0.5-0.5c-0.1-0.1-0.2-0.2-0.3-0.2c-0.7,0-1-0.5-1.2-1c0-0.1-0.1-0.2-0.1-0.3  c-0.2-0.3-0.3-0.3-0.6-0.2c0-0.3-0.1-0.5,0.2-0.8c-0.3,0-0.4,0-0.5,0c-0.3,0.2-0.5,0.1-0.7-0.2c-0.2-0.3-0.4-0.3-0.8-0.2  c0.2-0.3,0.4-0.3,0.6-0.3c0.2,0,0.4,0,0.6,0c0.1,0,0.3,0.1,0.3,0c0.1-0.2-0.2-0.1-0.2-0.2c0.5-0.3,0.8,0.1,1.1,0.3  c0.7,0.4,1.3,0.9,2,1.1c0.1,0,0.2,0.1,0.3,0.1c0,0,0.1,0,0.1-0.1l-0.1-0.1c-0.6-0.1-1-0.5-1.3-1.1c0.9,0.2,1.8,0.4,2.6,0.8  c0.1,0,0.2,0.2,0.3,0c0.1-0.1,0-0.2-0.1-0.3l-0.1-0.1c-0.1-0.1-0.4-0.2-0.3-0.4c0.1-0.2,0.3,0,0.5,0c0.3,0,0.4-0.1,0.3-0.6  c-0.2,0-0.3,0.2-0.4,0.3c-0.2-0.1-0.2-0.3-0.3-0.4l-0.1,0c-0.1,0.1,0,0.4-0.3,0.4c-0.2,0-0.2-0.2-0.3-0.4c0-0.1,0-0.2,0-0.4  c0-0.1,0-0.2-0.1-0.2c-0.1-0.1-0.2,0.1-0.2,0.1c0,0.1-0.1,0.2-0.1,0.2l-0.1,0.1c-0.1-0.4-0.5-0.2-0.6-0.4c0-0.1-0.1-0.1-0.1-0.1  c-0.2,0-0.3-0.1-0.1-0.3l0-0.1c-0.1-0.1-0.1,0-0.2,0c-0.3,0.1-0.4-0.1-0.3-0.3c0.1-0.3,0-0.5-0.4-0.6c0.2-0.2,0.5-0.4,0-0.4  c-0.1,0,0.1-0.1,0.1-0.2c-0.1-0.1-0.2,0.1-0.3,0c0.1-0.3,0.1-0.4-0.2-0.2c0-0.5,0.2-0.4,0.4-0.3c0.6,0.3,1.1,0.7,1.7,0.9  c0.3,0.1,0.6,0.4,1,0.6c0.2,0.1,0.5,0.4,0.7,0c0,0,0.3,0.1,0.4,0c0.3-0.1,0.3-0.2,0.1-0.5c-0.1-0.1-0.2-0.2-0.3-0.4  c0-0.1-0.1-0.2-0.2-0.1c-0.1,0-0.1,0.1-0.1,0.2c0,0.1,0,0.2-0.1,0.2c-0.1,0-0.1-0.1-0.2-0.2c0-0.2,0-0.4-0.2-0.5  c-0.2,0-0.4,0-0.6,0.1c-0.1,0-0.2,0.1-0.2,0c-0.1-0.2-0.4-0.3-0.6-0.3c-0.3,0-0.5-0.1-0.7-0.3c-0.1-0.1-0.2-0.1-0.1-0.2  c0-0.1,0.1-0.1,0.2-0.1c0.2-0.1,0.4,0,0.6,0c0.1,0,0.3,0,0.2-0.2c0-0.2-0.1-0.1-0.2,0c-0.3,0.1-0.3-0.2-0.4-0.3  c-0.1-0.2-0.1-0.4-0.4-0.3c-0.1,0-0.2-0.1-0.2-0.2c0-0.1,0-0.2-0.2-0.1c-0.3,0-0.3-0.2-0.3-0.4c0-0.2,0.1-0.1,0.2-0.1  c0.6,0.3,1.3,0.4,2,0.6c0.1,0,0.2,0.1,0.3,0.1c0.5,0.4,1.1,0.4,1.6,0.7c0.1,0,0.1,0.1,0.2,0c0-0.1,0-0.1,0-0.2  c-0.1-0.5-0.5-0.8-1-0.8c-0.1,0-0.2-0.1-0.3-0.1c-0.3-0.3-0.6-0.6-0.8-0.9c0.1-0.1,0.2,0,0.4-0.1c-0.3-0.2-0.4-0.5-0.8-0.7  c0.5-0.3,0.9-0.1,1.2,0.1c0.6,0.3,1.3,0.5,2,0.9c0.1,0,0.1,0.1,0.3,0c-0.2-0.2,0.2-0.4,0.1-0.6c-0.4,0.2-1.1-0.1-1.3-0.5  c-0.1-0.2-0.2-0.3-0.3-0.5l-0.1-0.1c-0.5,0.3-0.3-0.2-0.4-0.4c-0.1-0.2-0.1-0.6-0.4-0.1l-0.1,0.1c-0.1-0.2-0.4-0.2-0.5-0.4  c-0.1-0.3-0.5-0.5-0.6-0.9c0.3,0,0.6,0,0.9,0.2c0.3,0.3,0.7,0.4,1.1,0.6c0.4,0.1,0.7,0.3,1,0.5c0.1,0.1,0.3,0.2,0.5,0.1  c0.1-0.1,0.2-0.2,0.1-0.4c0-0.1,0-0.3-0.2-0.2c-0.2,0.1-0.3-0.3-0.4-0.4c-0.2-0.2-0.5-0.3-0.5-0.7l-0.1,0c-0.5,0.2-0.5-0.4-0.9-0.5  c0.4-0.3,0.8-0.1,1.2,0.1c0.4,0.2,0.7,0,1.1,0.1c0.1,0,0.2-0.1,0.2-0.2c0-0.1-0.1-0.1-0.1-0.1c-0.1,0-0.2,0-0.2-0.1  c0-0.4-0.4-0.6-0.5-0.9c0-0.1,0-0.1-0.1-0.1c-0.4,0-0.6-0.2-0.9-0.3c-0.1,0-0.2,0-0.2-0.1l0.1-0.1c0.5-0.1,0.9-0.3,1.4-0.2  c0.3,0,0.5-0.2,0.5-0.5c0-0.1,0.1-0.3-0.2-0.2c-0.1,0.1-0.1-0.1-0.2-0.2c-0.1-0.1,0-0.3-0.3-0.3c-0.2,0-0.1-0.2-0.1-0.3  c0-0.1,0.1-0.1,0.2-0.2c0.4-0.1,0.7,0,1.1,0.2c0.3,0.1,0.4,0,0.4-0.3c0-0.1,0-0.2-0.1-0.1c-0.5,0.2-0.2-0.2-0.2-0.3  c-0.1-0.1-0.2,0.2-0.3,0.1c-0.1-0.1,0.1-0.2,0.1-0.4c0-0.1,0.3-0.1,0.2-0.3c-0.1-0.1-0.3,0-0.4,0c-0.1,0-0.2,0.1-0.3,0.2  c0-0.2,0.1-0.4,0.3-0.4c0.3,0,0.5-0.3,0.7-0.5c0.1,0,0.1-0.1,0.1-0.2c-0.2-0.3,0-0.3,0.2-0.5c0.1-0.1,0.2-0.1,0.2-0.2  c0-0.1-0.2-0.1-0.3-0.1c-0.3,0.1-0.2-0.1-0.2-0.2c-0.2,0-0.2,0.3-0.4,0.2c-0.1-0.1,0-0.3,0.1-0.4c0.1-0.2,0.2-0.3,0.4-0.3  c0.2,0,0.4,0.2,0.4,0.4c0.1,0.5,0.4,0.9,0.8,1.3c-0.2,0-0.3-0.1-0.4-0.2c-0.1-0.1-0.2-0.2-0.3,0c-0.1,0.1-0.1,0.3,0.1,0.3l0,0  c0.6,0.3,0.6,0.3,0.4,0.8c-0.1,0.2-0.1,0.3,0.1,0.3c0.1,0,0.2,0.1,0.2,0.2c0,0.1-0.2,0-0.2,0c-0.1,0-0.2-0.1-0.2,0  c-0.2,0.1-0.4,0.1-0.4,0.4c0,0.2,0.3,0.2,0.5,0.2c0.2,0,0.4-0.1,0.7-0.1c0.1,0,0.1,0,0.2,0.1c0,0.1,0,0.2-0.1,0.2  c-0.3,0.1-0.5,0.3-0.7,0.5c-0.3,0.2-0.3,0.3,0,0.4c0.1,0,0.1,0.1,0.2,0.1c0.6,0.1,0.9,0.6,1.3,0.9c0.1,0.1,0.2,0.2,0.1,0.3  c-0.2-0.2-0.4-0.2-0.5,0.1c-0.1,0.2-0.3,0.1-0.4,0c-0.1-0.2-0.3-0.2-0.5-0.1c-0.1,0.1-0.3,0.2,0,0.4c0.3,0.2,0.3,0.6,0,0.8L298,8.2  c-0.1,0.1-0.2,0.2-0.2,0.3c0.1,0.2,0.2,0,0.3,0c0.2,0,0.4-0.1,0.5-0.1l0,0.1c0,0.2-0.3,0.2-0.2,0.4c0.1,0.2,0.3,0,0.5,0  c0.4-0.1,0.8-0.3,1.1-0.5c0.3-0.2,0.7-0.3,1.1-0.2c0.1,0,0.1,0,0.2,0.1c0,0.1,0,0.1-0.1,0.2c-0.3,0.1-0.5,0.4-0.7,0.6  c-0.1,0.2-0.4,0-0.6,0.2l-0.1,0c0.1,0.5-0.5,0.6-0.5,1c0,0.1,0,0.3-0.2,0.2c0,0-0.4,0.1-0.5,0.3l0,0.1c0,0.2-0.4,0.3-0.2,0.5  c0.2,0.1,0.5,0,0.7-0.1c0.5-0.3,1-0.5,1.5-0.8c0.1,0,0.2-0.1,0.3-0.1c0.4,0,0.7-0.1,1-0.2c0.1,0,0.2-0.1,0.2,0  c0,0.1-0.1,0.2-0.1,0.2c-0.2-0.1-0.3,0.4-0.5,0.2c-0.1,0.2,0.1,0.3,0,0.5c-0.3-0.1-0.7-0.3-1,0.1c0.3,0.1,0.5,0.2,0.8,0.3  c-0.1,0.2-0.2,0.2-0.4,0.2l-0.1,0c-0.1,0.4-0.3,0.2-0.5,0c-0.1-0.1-0.2,0-0.2,0.1c0,0.2,0,0.4-0.1,0.5c-0.2,0-0.1-0.2-0.2-0.2  c-0.1,0.3-0.4,0.6-0.5,0.9c0,0.1-0.1,0.2-0.1,0.3c0.1,0.1,0.2,0,0.3-0.1c0.2-0.1,0.3-0.1,0.5-0.3c0.4-0.3,0.8-0.1,1.1,0.1  c0.1,0.1,0.2,0.2,0,0.2c-0.2,0.1-0.3,0.2-0.5,0.3c-0.2,0-0.4,0.2-0.5,0.4c-0.1,0.2-0.1,0.4-0.4,0.3c-0.1,0-0.2,0.1-0.2,0.2  c0.1,0.5-0.4,0.3-0.5,0.6c-0.4-0.2-0.4,0.2-0.5,0.3c-0.1,0.1,0,0.2,0.1,0.4c0.1,0.1,0.2,0.1,0.3,0c0.5-0.4,1-0.6,1.5-0.9  c0.4-0.2,0.9-0.5,1.4-0.4c0.3,0,0.6,0,1-0.1c0.1,0,0.2,0,0.2,0.1c0,0.1-0.1,0.2-0.1,0.2c-0.5,0-0.4,0.2-0.2,0.5  c-0.3-0.3-0.6,0.3-1,0c0,0.1,0,0.5-0.3,0.2l0,0c-0.2,0.3-0.5,0.3-0.7,0.4c-0.1,0.1-0.1,0.3-0.4,0.3c-0.2,0-0.1,0.2-0.2,0.3  c-0.1,0-0.1-0.2-0.3-0.2c-0.1,0.1,0,0.4-0.2,0.4c-0.1,0-0.1,0.1,0,0.2c0.1,0.1,0.1,0.1,0.2,0.1c0.9-0.2,1.7-0.4,2.6-0.2l0.2,0  c0.1,0,0.4-0.2,0.4,0.1c0,0.2-0.1,0.4-0.3,0.4c-0.3,0-0.5,0-0.7,0.3c0,0.1-0.2,0.1-0.3,0.1c-0.3,0-0.5,0.1-0.7,0.4  c-0.1,0.2-0.4,0.1-0.4,0.2c-0.3,0.4-0.7,0.4-1.1,0.5c-0.1,0-0.2,0.1-0.4,0.2c0.5,0,1-0.1,1.4,0.1c0.1,0.1,0.4,0.1,0.4,0.3  c0,0.2-0.2,0.2-0.4,0.2c-0.3,0-0.5,0.2-0.7,0.4c0.2,0.1,0.4,0.1,0.5,0.1c0.8-0.3,1.6-0.3,2.3-0.6c0.1-0.1,0.3,0,0.4,0  c0.3,0,0.7,0.1,1,0c0.1,0,0.2,0,0.2,0.1c0,0.1-0.1,0.1-0.2,0.2c-0.3,0.2-0.5,0.4-0.9,0.6c-0.1,0.1,0,0.3,0,0.5  c-0.2,0.1-0.5,0-0.8,0.1c-0.4,0.1-0.3,0.2-0.1,0.3c0.2,0.2,0.1,0.2,0,0.3c-0.2,0.2-0.2,0-0.3-0.1c-0.1,0.1,0,0.2-0.1,0.3  c-0.2-0.1-0.4-0.1-0.5-0.4c0-0.1-0.2-0.1-0.4,0c-0.2,0.1-0.5,0.2-0.6,0.6c-0.1-0.2-0.2-0.4-0.2-0.6c-0.1-0.1-0.2-0.2-0.3-0.1  c-0.2,0.2-0.6,0.2-0.5,0.6c0,0.1-0.1,0.2-0.1,0.3c-0.1,0.2-0.1,0.2-0.3,0.1c-0.2-0.2-0.4,0-0.5,0.1c-0.1,0.1-0.1,0.3,0.1,0.4  c0.1,0,0.3,0,0.4,0.1c0.4,0.5,0.9,0.4,1.5,0.3c0.4-0.1,0.8-0.2,1.2-0.2c0.4,0,0.8,0.2,1.1,0.3c0.1,0,0.1,0.1,0,0.2  c-0.3,0.2-0.7,0.3-1.1,0.2c0.2,0.2,0.5,0.1,0.8,0.1c-0.2,0.1-0.3,0.2-0.4,0.4c0,0.1-0.2,0.2-0.3,0.2c-0.5-0.1-1.1-0.1-1.6,0.2  c-0.1,0-0.2,0-0.3-0.1c-0.3-0.2-0.5,0-0.8,0c-0.1,0-0.1,0.2-0.1,0.3c0,0.3-0.2,0.4-0.4,0.3c-0.3-0.1-0.3,0.2-0.6,0.1  c0.2,0.3,0.4,0.3,0.7,0.3c0.5-0.1,1-0.1,1.5-0.3c0.2-0.1,0.6-0.2,0.8-0.1c0.6,0.1,1.2,0,1.8,0.2c0.1,0,0.2,0,0.3,0  c0.3-0.2,0.6,0.1,1,0.1l0.1,0c0.1,0.6,0.7,0.5,1,0.8c0.1,0.1,0.2,0.1,0.3,0.2c0.1,0.1,0.2,0.2-0.1,0.2c-0.1,0-0.2,0.1-0.3,0.1  c-0.3,0.1-0.3,0-0.4-0.2c0-0.1-0.1-0.1-0.1-0.2c0-0.2-0.2-0.1-0.3-0.1c-0.2,0-0.1,0.1-0.1,0.2c0,0.2,0,0.4-0.1,0.6  c0,0.1,0,0.3-0.1,0.3c-0.2,0,0-0.2-0.1-0.3c-0.1,0-0.2,0.5-0.3,0c0-0.1-0.1-0.1-0.1-0.1c-0.3,0.3-0.3,0-0.4-0.1  c-0.2-0.2-0.6-0.1-0.8,0.2c-0.1,0.1,0,0.2-0.2,0.1c-0.3-0.2-0.1,0.2-0.4,0.2c-0.1-0.1-0.1-0.4-0.2-0.6c-0.1,0.3-0.3,0.6-0.4,0  c-0.2,0-0.1,0.2-0.2,0.3c-0.2-0.1,0-0.3-0.2-0.4c-0.2-0.1-0.3,0.1-0.5,0.2c0,0.2,0.2,0.1,0.2,0.3l0,0c-0.1,0.1-0.3,0.1-0.2,0.1  c0.1,0.2,0.2,0.4,0.4,0.6c0.6,0.4,1.2,0.4,1.8,0.4c0.5,0,1,0.3,1.5,0.4c0.7,0.1,1.1,0.7,1.8,0.8c0.1,0,0.2,0.1,0.1,0.1  c-0.1,0.2,0.2,0.4,0,0.5c-0.1,0.1-0.1-0.2-0.2-0.1c-0.3,0.4-0.3,0.2-0.4-0.1c0-0.1-0.3,0.1-0.3-0.2c-0.2,0.1-0.1,0.3-0.3,0.4  c-0.1,0-0.1-0.1-0.1-0.2c-0.1-0.1-0.2-0.2-0.4-0.2c-0.2,0.1-0.1,0.2,0,0.4c0.1,0.1,0.1,0.3,0,0.4c-0.1,0.2-0.2,0-0.3-0.1  c-0.4-0.1-0.7-0.2-1.1-0.3c-0.1,0-0.2-0.1-0.2,0c-0.1,0.1-0.1,0.3-0.1,0.4c0,0.1,0.1,0.1,0.2,0.1c0.1,0,0.3,0,0.4,0  c0.2,0,0.3,0,0.5,0.1c0,0.1-0.1,0.1-0.2,0.1c-0.1,0-0.2,0-0.2,0.1c0,0.2,0.1,0.3,0.2,0.3c0.2,0,0.4,0.1,0.6,0c0.5-0.1,1-0.1,1.4,0.2  c0.2,0.1,0.4,0.1,0.6,0.2c-0.3,0.2-0.6,0.4-0.9,0.1c-0.1-0.1-0.3-0.2-0.4,0.2c0,0.3-0.4,0.2-0.5,0.2c-0.2,0-0.3,0-0.4,0.2  c-0.1,0.2-0.2,0.3-0.4,0.2c-0.2-0.1-0.2-0.1-0.4,0.3c-0.1,0-0.1-0.1-0.1-0.2c0-0.1,0-0.2-0.2-0.2c-0.2,0-0.3,0.1-0.3,0.3  c0,0.2,0.1,0.1,0.2,0.2c0.3,0.1,0.3,0.4,0.6,0.5c0.7,0.1,1.2,0.7,1.8,0.9c0.1,0,0.2,0.1,0.1,0.2c-0.1,0.2-0.3,0.3-0.5,0.3  c-0.2-0.1-0.5,0.1-0.7-0.2c-0.1-0.2-0.2,0.1-0.4,0.2c-0.1-0.2-0.3-0.7-0.3-0.6c-0.2,0.2-0.8-0.1-0.7,0.5c-0.1-0.4-0.7-0.4-0.8-0.8  c-0.1,0.1-0.1-0.3-0.3-0.1c-0.2,0.2-0.4,0.3-0.1,0.6c0.5,0.4,1,0.9,1.8,1c0.5,0,0.8,0.5,1.1,0.7c0.1,0.1,0.1,0.1-0.1,0.2  c-0.1,0.1,0,0.2-0.1,0.3c-0.2,0.1-0.2-0.5-0.5-0.1l-0.1-0.1c-0.1-0.2-0.1-0.5-0.5-0.3l-0.1,0c0-0.3-0.3-0.3-0.4-0.4  c-0.5-0.3-0.7-0.3-0.9,0.3l0,0.1c0.4,0.6-0.2,0.5-0.4,0.6c-0.2,0-0.3,0.2-0.4,0.3c-0.1,0.1,0,0.3-0.2,0.3c-0.2,0-0.3-0.1-0.4-0.3  c-0.1-0.2-0.2-0.4-0.2-0.6c0-0.1,0-0.2-0.1-0.2c-0.1,0-0.2,0-0.2,0.1c-0.1,0.2-0.2,0.2-0.4,0.1c-0.2,0-0.4,0-0.5,0.2  c-0.3,0.3-0.9,0.1-1-0.3c0-0.1-0.1-0.2-0.2-0.2c-0.2,0.1-0.6-0.1-0.6,0.4c0,0.9-0.1,1.7-0.1,2.6c0,1.2-0.1,2.3-0.1,3.5  c0,0.6,0,1.2,0.1,1.8c0,0.4,0.2,0.8,0.6,1l-0.1,0.1c-0.3,0-0.6,0-1,0c-0.3,0-0.5-0.1-0.8,0.1c-0.1,0.1-0.3,0.3-0.4-0.1  c0-0.1-0.4,0-0.6-0.1c-0.1,0-0.3,0-0.3-0.2c0-0.1,0.2-0.1,0.3-0.1c0.4,0,0.6-0.2,0.7-0.6c0.1-0.3,0.1-0.6,0.1-0.8  c0.1-1.6,0.1-3.2,0.2-4.8c0-0.2,0-0.5-0.3-0.6c-0.2-0.1-0.4,0-0.6,0.2c-0.1,0.1-0.2,0.1-0.3,0c-0.1-0.1-0.2-0.2-0.3-0.2  c-0.3-0.1-0.4-0.2-0.1-0.5c-0.4,0-0.7,0-0.7-0.5c0-0.2-0.2-0.3-0.3-0.3c-0.2-0.1-0.2,0.1-0.3,0.2c-0.2,0.3-0.5,0.5-0.7,0.7  c-0.2,0.2-0.4,0.3-0.6,0.5c-0.1,0.1-0.3,0.1-0.4,0c-0.1-0.1,0-0.2,0-0.3c0-0.1,0.1-0.2,0.2-0.2c0.2-0.1,0.4-0.2,0-0.5  c-0.2-0.1,0-0.2,0.1-0.3c0.3-0.3,0.4-0.7,0.5-1.1c0-0.1,0-0.2-0.1-0.3c-0.1,0.1-0.2,0.3-0.4,0.2c-0.1,0-0.1,0.1-0.1,0.1  c0,0.2-0.1,0.3-0.3,0.2c-0.1,0-0.1,0-0.1,0.1c0,0.3-0.1,0.3-0.3,0.3c-0.4,0.2-0.7,0.1-0.9-0.3c-0.1-0.1,0-0.3-0.2-0.1  c-0.2,0.2-0.5,0.1-0.7,0.3c-0.1,0.1-0.1,0-0.2,0c-0.1-0.1-0.1-0.1,0-0.2c0.3-0.4,0.6-0.8,1-1.2c0.6-0.4,1.3-0.6,1.8-1  c0.4-0.3,0.4-0.6,0.2-1c-0.4,0-0.6,0.5-1.1,0.5c-0.1,0-0.2,0-0.3-0.1c-0.1-0.1-0.1-0.2,0-0.3c0.1-0.2,0.1-0.3-0.1-0.3  c-0.2,0-0.2-0.3-0.4-0.5c-0.1,0.1-0.2,0.2-0.1,0.2c0.1,0.4-0.4,0.5-0.3,0.8c-0.3,0-0.6,0-0.9,0c-0.2,0-0.1-0.3-0.3-0.3  c0.1-0.3,0.2-0.7,0.4-0.9c0.6-0.4,1-1,1.7-1.3c0.5-0.2,1,0,1.4-0.2c0.2,0,0.3-0.1,0.5-0.1c0.1,0,0.2,0,0.2-0.1  c0-0.3,0.2-0.4,0.4-0.6c0.1-0.1,0.1-0.2,0-0.2c-0.2-0.1-0.5-0.1-0.7-0.3c-0.1-0.1-0.1,0-0.2,0.1c0,0.1-0.1,0.2-0.2,0.1  c-0.3-0.3-0.4,0-0.4,0.2c-0.1,0.1-0.1,0.2-0.3,0.1c-0.1,0-0.2-0.1-0.2,0.1c0,0.1-0.1,0.1-0.2,0c0-0.2-0.2-0.2-0.3-0.3  c-0.2-0.2-0.3-0.3-0.4,0c0,0.1-0.7,0.1-0.7,0c-0.1-0.1-0.1-0.1-0.2-0.2c-0.1-0.1-0.1-0.1-0.2-0.2c-0.1,0-0.1,0.2-0.2,0.2  c-0.1,0-0.2,0-0.2-0.1c-0.1,0,0-0.1,0-0.2c0.1-0.2,0.3-0.3,0.4-0.4c0.2-0.2,0.5-0.3,0.7-0.5c0.1-0.1,0.3-0.2,0.5-0.2  c0.3,0.1,0.6,0,0.8-0.1c0.4-0.2,0.8-0.2,1.2-0.2c0.4,0,0.4-0.1,0.2-0.5l0,0c-0.1-0.1-0.1-0.4-0.3-0.4c-0.2,0-0.2,0.3-0.3,0.4  c-0.1,0.2-0.2,0.3-0.4,0c-0.1-0.3-0.9-0.6-1.2-0.5c-0.1,0-0.2,0-0.2,0.1c-0.2,0.3-0.5,0.1-0.5,0c-0.2-0.4-0.3-0.1-0.5,0  c-0.1,0.1-0.1,0.2-0.2,0.2c-0.1-0.1-0.1-0.2-0.2-0.3c-0.2,0-0.1,0.4-0.4,0.1c-0.1-0.1-0.1,0.1-0.1,0.1c-0.1,0.2-0.2,0.1-0.3,0  c-0.1-0.1,0.1-0.8,0.2-0.8c0.4-0.1,0.7-0.3,1.1-0.4c0.3-0.1,0.6-0.2,0.9-0.2c0.9,0,1.8,0.1,2.7,0.3c0.1,0,0.3,0,0.2-0.1  c-0.1-0.1,0.2-0.3-0.1-0.3c-0.3-0.1-0.5-0.2-0.6-0.6c-0.2,0.2-0.3,0.6-0.5,0.1c0-0.1-0.3-0.1-0.4,0c-0.5,0.3-0.5,0.3-0.7-0.2  c0-0.1,0-0.2-0.1-0.2c-0.1,0-0.1,0.2-0.2,0.2c-0.2-0.1-0.3-0.5-0.5,0c-0.1-0.1-0.2-0.1-0.4,0c-0.2,0.2-0.5,0.2-0.6-0.1  c-0.1-0.1-0.2,0-0.3,0.1c-0.1,0.1-0.3,0.1-0.4,0c-0.1-0.1,0.1-0.2,0.1-0.3c0.7-0.5,1.5-0.8,2.5-0.7c0.3,0.1,0.7,0,1,0.2  c0.1,0,0.2,0.1,0.3,0c0.1-0.1,0-0.2,0-0.3c-0.1-0.1-0.2-0.3-0.3-0.2C291.1,22.8,291,22.6,290.9,22.3z M301,29.2  c-0.1,0-0.1-0.1-0.2-0.2c-0.2-0.1-0.5-0.1-0.5,0c-0.2,0.1,0,0.3,0.1,0.4c0.2,0.2,0.4,0.2,0.6,0.1c0.2-0.1,0.4-0.1,0.6,0  c0.1,0,0.2,0.1,0.2-0.1c0-0.1-0.1-0.2-0.1-0.3c-0.1-0.1-0.1-0.2-0.2,0c-0.2,0.3-0.3,0.1-0.4-0.1c0-0.1,0-0.1-0.1-0.1  C301.1,29,301.1,29.1,301,29.2z"></path>
<polygon class="st0" points="296,42.1 7.4,41.2 296,40.2 "></polygon>
</svg>
