<svg id="Layer_1" data-name="Layer 1" xmlns="http://www.w3.org/2000/svg" viewBox="0 0 99.82 99.82">
  <defs>
    <style>
      .cls-1 {
        fill: #fff;
      }
    </style>
  </defs>
  <g id="Layer_1-2" data-name="Layer 1">
    <path class="cls-1" d="M68.82,49.91,98.46,20.28a4.58,4.58,0,0,0,0-6.31L85.85,1.26a4.58,4.58,0,0,0-6.31,0L49.91,31,20.28,1.26a4.58,4.58,0,0,0-6.31,0L1.26,14a4.58,4.58,0,0,0,0,6.31L31,49.91,1.26,79.54a4.58,4.58,0,0,0,0,6.31L14,98.56a4.58,4.58,0,0,0,6.31,0L49.91,68.82,79.54,98.46a4.58,4.58,0,0,0,6.31,0L98.56,85.74a4.57,4.57,0,0,0,0-6.3Z" transform="translate(0 0)"/>
  </g>
</svg>
